<?xml version="1.0" encoding="utf-8"?>
<!-- Generator: Adobe Illustrator 26.0.3, SVG Export Plug-In . SVG Version: 6.00 Build 0)  -->
<svg version="1.0" id="katman_1" xmlns="http://www.w3.org/2000/svg" xmlns:xlink="http://www.w3.org/1999/xlink" x="0px" y="0px"
	 viewBox="0 0 600 450" style="enable-background:new 0 0 600 450;" xml:space="preserve">
<style type="text/css">
	.st0{fill:#010202;}
</style>
<path class="st0" d="M177.1,259.8l5.2-65c0,0,0.9-5.8,6.9-5.8h7.6l15.9,42.7c0,0,11.1-30.2,13.3-35.8c1.5-3.8,4.6-6.9,8.7-6.9h7.7
	l5.5,70.8h-13.2l-3.2-45.6l-13.1,33.5h-11.5L194,214.8l-3.5,45H177.1z M354.5,215.3c0,0-3.1,9.3-9.5,6.6c-4.3-1.8-4.9-2.7-10-2.7
	c-5.1,0-12.8,5.9-12.6,14.4c0.1,6,2.4,10.4,6.2,13c2.2,1.5,4.8,2.4,7.5,2.4c4.9,0,6.2-1.1,10.1-2.9c5.7-2.7,8.8,3.9,9.8,6.1
	c-2,2.2-8.9,8.8-20.1,8.7c-17.3-0.2-27.2-12.6-26.8-27.2c0.5-14.6,10.6-26.3,26.4-26.3C348.6,207.4,354.5,215.3,354.5,215.3z
	 M466.1,215c-1-3.3,1.1-6.4,4.6-6.4h7.4L487,244c0,0,6.7-25.1,7.8-29c1.3-4.9,4.9-6.2,7.3-6.2c2.6,0,5.9,0,5.9,0l9.5,35.4
	c0,0,6.4-24.9,7.2-28.9c1-4.7,4.4-6.7,7.3-6.7h8.1l-14.9,51.2h-14.1l-8.9-31.5l-8.8,31.5h-14.2C479.1,259.7,467.4,219.2,466.1,215z
	 M363.4,196.3c0-5.7,4-7.4,6.6-7.4c2.6,0,8.8,0,20.5,0c5.1,0,20.9,3.8,20.9,23.1c0,18.7-13.7,23.7-20.9,23.7h-13.7v24h-13.4V196.3z
	 M376.7,201.2l0,22.4l11.4,0c0,0,9.8,0.5,9.8-11.7c0-8.3-6-10.7-10.2-10.7H376.7z M419.2,214.1c0,0,7.6-6.7,19.8-6.6
	c11.5,0,20.2,5.9,20.2,21.9s-0.2,30.5-0.2,30.5l-12.2-0.2l0.1-5.9c0,0-3.8,7-13.8,7.2c-7.8,0.2-16.7-4.3-17-16
	c-0.2-10.1,8.1-14.3,13.2-15.8c8.4-2.4,16.6-2,16.6-2s0.9-8.1-8.1-8.1c-5.7,0-7.1,1.8-10,2.5C421.8,222.8,419.2,214.1,419.2,214.1z
	 M446.2,237c-3.3,0-7.6,0-11.2,1.2c-2.8,0.9-5.5,2.5-5.5,6.1s2.9,5.7,6.5,5.7C443,250,446.4,241.7,446.2,237z M259.7,214.1
	c0,0,7.6-6.7,19.8-6.6c11.5,0,20.2,5.9,20.2,21.9s-0.2,30.5-0.2,30.5l-12.2-0.2l0.1-5.9c0,0-3.8,7-13.8,7.2c-7.8,0.2-16.7-4.3-17-16
	c-0.2-10.1,8.1-14.3,13.2-15.8c8.4-2.4,16.6-2,16.6-2s0.9-8.1-8.1-8.1c-5.7,0-7.1,1.8-10,2.5C262.2,222.8,259.7,214.1,259.7,214.1z
	 M286.6,237c-3.3,0-7.6,0-11.2,1.2c-2.8,0.9-5.5,2.5-5.5,6.1s2.9,5.7,6.5,5.7C283.4,250,286.8,241.7,286.6,237z"/>
<path class="st0" d="M91.1,177.1c1-0.5,4.6-1.8,5.7,0.2c1.1,2-2,4.4-3,4.9c-1,0.6-2.7,0.5-3.7-1.3C89.1,179.1,90.2,177.6,91.1,177.1
	z M101.9,196.9c1-0.5,4.6-1.8,5.7,0.2c1.1,2-2,4.4-3,4.9c-1,0.6-2.7,0.5-3.7-1.3C99.9,198.9,101,197.4,101.9,196.9z M100.9,274.7
	c-6.3,0-12.5-1.2-18.3-3.7c-5.6-2.4-10.6-5.7-14.9-10c-4.3-4.3-7.7-9.3-10.1-14.9c-2.4-5.8-3.7-11.9-3.7-18.3s1.2-12.5,3.7-18.3
	c2.4-5.6,5.7-10.6,10.1-14.9c4.3-4.3,9.3-7.7,14.9-10c1.4-0.6,3-0.9,4.5-0.9c4.7,0,8.9,2.8,10.7,7.1c2.5,5.9-0.3,12.8-6.2,15.3
	c-2.8,1.2-5.3,2.9-7.5,5.1c-2.2,2.2-3.9,4.7-5.1,7.5c-1.2,2.9-1.8,6-1.8,9.2s0.6,6.3,1.8,9.2c1.2,2.8,2.9,5.3,5.1,7.5
	c2.2,2.2,4.7,3.9,7.5,5.1c2.9,1.2,6,1.8,9.2,1.8c3.2,0,6.3-0.6,9.2-1.8c2.8-1.2,5.3-2.9,7.5-5.1c2.2-2.2,3.9-4.7,5.1-7.5
	c1.2-2.9,1.9-6,1.9-9.2c0-6.4,5.2-11.6,11.6-11.6c6.4,0,11.6,5.2,11.6,11.6c0,6.3-1.2,12.5-3.7,18.3c-2.4,5.6-5.7,10.6-10,14.9
	c-4.3,4.3-9.3,7.7-14.9,10C113.4,273.5,107.2,274.7,100.9,274.7z M102.6,188.1c1.1-0.6,5.5-2.2,6.7,0.1c1.2,2.3-2.6,5.1-3.8,5.7
	c-1.2,0.6-3,0.6-4.1-1.5C100.4,190.3,101.6,188.6,102.6,188.1z M98.5,180.7c1.1-0.6,5.4-2.1,6.6,0.1c1.2,2.3-2.5,5-3.7,5.6
	c-1.2,0.6-3,0.6-4.1-1.5C96.3,182.9,97.4,181.2,98.5,180.7z"/>
</svg>
